<svg xmlns="http://www.w3.org/2000/svg" viewBox="0 0 100 100" role="img" aria-label="Abella's Dry Goods — T-shirt Logo">
  <defs>
    <linearGradient id="g" x1="0%" y1="0%" x2="100%" y2="100%">
      <stop offset="0%" stop-color="#2563eb"/>
      <stop offset="100%" stop-color="#1d4ed8"/>
    </linearGradient>
    <linearGradient id="g2" x1="0%" y1="0%" x2="100%" y2="100%">
      <stop offset="0%" stop-color="#60a5fa"/>
      <stop offset="100%" stop-color="#3b82f6"/>
    </linearGradient>
  </defs>
  <!-- rounded app background -->
  <rect width="100" height="100" rx="22" fill="url(#g)"/>
  <!-- t-shirt shape -->
  <path d="M32 28 L22 34 L28.5 44 L34 40 L34 74.5 Q34 77 36.5 77 L63.5 77 Q66 77 66 74.5 L66 40 L71.5 44 L78 34 L68 28 C66.5 28 64.8 26.5 63 22 L57 22 C55.5 26.5 53 29.2 50 29.2 C47 29.2 44.5 26.5 43 22 L37 22 C35.2 26.5 33.5 28 32 28 Z" fill="white" opacity="0.98"/>
  <!-- collar detail -->
  <path d="M43 22 Q50 29 57 22" fill="none" stroke="#dbeafe" stroke-width="1.8" stroke-linecap="round"/>
  <!-- tiny pocket / stitch hint -->
  <path d="M42 46 H54" stroke="#e0e7ff" stroke-width="1.2" stroke-linecap="round" opacity="0.9"/>
  <path d="M42 46 L42 52 Q42 53 43 53 H53 Q54 53 54 52 L54 46" fill="none" stroke="#e0e7ff" stroke-width="1.1" stroke-linejoin="round" opacity="0.8"/>
  <!-- tag dot -->
  <circle cx="50" cy="33.5" r="1.3" fill="#93c5fd" opacity="0.9"/>
</svg>
